<svg width="1000" height="776" viewBox="0 0 1000 776" fill="none" xmlns="http://www.w3.org/2000/svg">
<path d="M939.192 3.52264C929.923 7.84808 927.142 10.9377 918.337 26.077C896.555 63.9249 819.623 170.672 773.278 227.675C754.277 250.848 731.723 276.955 730.024 277.573C728.324 278.191 731.568 260.58 752.423 155.069C762.31 105.789 770.343 61.9167 770.343 57.7457C770.652 43.9968 762.465 34.7279 748.252 32.8741C739.138 31.7928 728.788 37.0451 725.08 44.6147C723.535 47.5499 719.519 63.9249 715.966 80.9179C708.705 116.603 673.02 299.818 662.824 354.35C638.416 483.96 631.001 525.67 631.001 532.468C631.001 542.354 635.635 549.461 645.213 554.095C650.929 557.03 653.864 557.494 658.808 556.721C665.759 555.485 673.174 550.079 676.418 543.745C677.654 541.582 682.134 519.491 686.614 494.929C696.965 436.071 711.331 359.139 712.104 358.521C712.722 357.903 715.193 361.302 733.731 387.564C801.085 482.57 847.121 531.386 891.766 554.867C917.255 568.307 949.233 576.186 968.234 573.869C978.584 572.478 991.87 565.99 996.195 560.274C1000.37 554.404 1001.29 540.964 998.049 534.476C993.415 525.67 987.699 523.508 969.316 523.508C941.2 523.353 922.199 517.328 897.018 500.026C883.115 490.449 853.609 462.333 836.461 442.405C806.183 406.874 754.586 333.959 754.586 326.389C754.586 325.308 761.538 316.657 770.189 306.924C818.387 253.01 893.465 152.288 951.396 64.2339C973.95 29.939 975.495 27.0038 975.495 19.4342C975.34 2.90472 957.266 -5.12836 939.192 3.52264Z" fill="white"/>
<path d="M264.725 13.1005C201.079 24.5321 137.587 71.8035 89.8518 143.174C76.4119 163.257 56.3293 202.649 47.8328 225.822C36.8646 255.637 28.3681 295.802 30.6853 307.542C33.775 323.763 55.2479 332.414 67.9154 322.373C74.0947 317.584 76.2574 311.713 81.2008 288.078C100.048 195.698 161.068 108.57 230.121 75.3566C254.993 63.4615 266.27 60.8353 292.686 60.9897C311.842 60.9897 316.476 61.6077 324.355 64.5428C356.178 76.129 371.472 100.537 371.626 139.003C371.626 191.836 342.584 246.368 289.596 293.021C267.042 312.795 226.259 340.293 223.478 337.512C221.161 335.195 240.626 254.71 259.473 188.283C265.806 165.883 271.059 145.491 271.059 143.02C271.059 137.149 266.888 128.498 262.717 125.563C253.757 119.384 240.626 119.693 231.82 126.644C223.787 132.978 221.161 140.857 199.225 223.813C178.061 304.298 171.264 333.186 151.49 427.111C145.929 453.682 140.831 476.391 140.367 477.781C139.904 479.017 131.716 484.733 122.293 490.449C98.3483 504.815 82.7456 516.865 65.5982 534.167C34.3929 565.681 13.6924 600.285 4.26899 636.125C-0.828905 655.281 -1.44683 685.404 2.87865 701.162C12.611 737.001 39.7998 763.727 75.0216 772.223C89.6973 775.622 113.951 776.394 130.48 773.613C165.084 768.052 214.827 742.099 254.22 709.195C306.435 665.322 356.951 596.114 381.513 534.476C417.971 442.868 400.36 368.408 335.169 338.13C328.371 334.886 321.574 331.951 320.184 331.487C318.021 330.715 322.965 325.153 341.811 306.152C389.701 258.108 415.19 210.374 422.605 154.606C424.768 137.922 423.532 107.334 420.288 94.8212C412.409 65.9332 394.181 42.143 368.382 27.1583C358.495 21.4425 335.786 14.1818 321.574 12.3281C305.354 10.0109 279.092 10.4743 264.725 13.1005ZM305.817 380.149C322.192 384.32 336.095 396.06 343.511 412.281C366.219 461.561 334.242 551.778 265.961 630.872C221.934 682.006 166.166 718.772 122.293 725.879C90.0063 731.131 64.2078 720.472 53.3941 697.3C41.4991 671.81 52.6217 625.929 79.5015 589.935C87.8435 578.658 107.308 558.884 118.74 550.079L127.854 542.972L126.927 549.152C126.464 552.396 122.911 571.397 119.049 591.325C115.187 611.253 111.943 630.255 111.943 633.499C111.943 652.191 133.107 664.24 147.473 653.581C157.824 645.857 158.905 641.995 170.646 574.796C174.971 549.924 179.142 527.833 179.915 525.825C182.386 519.491 187.793 518.255 217.299 518.255C247.886 518.101 250.513 517.328 255.92 506.36C261.326 495.855 257.619 483.034 247.269 475.927C240.471 471.293 223.787 467.894 207.412 467.894H193.818V463.414C193.818 454.145 203.859 410.273 207.258 404.866C209.884 400.695 232.129 389.263 248.813 383.856C268.741 377.214 288.979 375.978 305.817 380.149Z" fill="white"/>
<path d="M644.132 63.307C635.172 64.5428 535.995 88.333 521.937 92.6585C501.7 98.8378 492.74 109.806 486.715 135.45C484.552 144.564 477.91 172.834 471.885 198.324C457.827 257.181 447.786 304.144 438.826 352.033C417.198 467.74 412.564 503.734 415.963 525.979C420.288 554.095 435.582 571.397 461.844 578.349C481.463 583.447 503.09 580.511 542.174 567.689C589.6 551.932 599.641 544.363 598.251 524.898C597.478 514.548 593.771 509.295 585.429 506.515C578.786 504.352 573.225 505.742 539.857 517.328C490.577 534.476 473.275 535.403 466.633 521.191C461.844 511.304 464.47 486.741 478.991 405.638C487.642 356.822 486.715 360.221 492.431 358.367C497.22 356.977 581.721 337.048 588.982 335.658C593.307 334.731 604.276 325.153 607.211 319.438C608.447 316.966 609.374 311.868 609.374 308.006C609.374 302.136 608.447 299.973 604.121 295.338C599.178 289.932 598.251 289.623 588.364 289.005C578.786 288.387 551.906 293.021 503.245 303.68C500.31 304.453 499.692 303.835 499.692 300.591C499.692 295.956 529.198 167.582 533.678 152.752C535.531 146.573 537.849 141.938 539.857 140.702C541.556 139.621 565.037 133.596 592.072 127.262C650.775 113.359 660.352 110.578 666.377 105.635C672.557 100.383 676.573 89.7234 675.028 82.1537C672.402 67.787 661.279 60.9897 644.132 63.307Z" fill="white"/>
<path d="M737.593 603.22C733.731 603.529 721.218 604.456 709.787 605.383C665.605 608.936 608.292 618.977 558.395 631.799C497.683 647.402 421.833 676.753 372.244 703.942C337.022 723.252 328.217 731.903 328.217 747.043C328.217 761.255 337.64 770.06 351.544 768.825C357.105 768.207 364.829 764.808 384.139 753.994C476.21 702.706 583.421 669.184 698.973 655.435C731.723 651.418 783.783 651.573 799.849 655.435C810.045 657.907 812.671 658.061 818.078 656.516C834.144 651.727 839.242 633.808 828.428 620.059C824.257 614.652 813.289 609.4 800.158 606.464C789.499 603.993 751.342 601.984 737.593 603.22Z" fill="white"/>
</svg>
