<svg width="576" height="125" viewBox="0 0 576 125" fill="none" xmlns="http://www.w3.org/2000/svg">
<g clip-path="url(#clip0_2_7)">
<path d="M0 23.1192H16.1714V101.666H0V23.1192Z" fill="white"/>
<path d="M32.3429 23.1192H48.5143V101.666H32.3429V23.1192Z" fill="white"/>
<path d="M64.6608 101.392V22.8769H84.8945L96.9907 65.1038C99.08 72.1416 100.18 77.4199 101.609 84.7876H102.049C103.479 77.4199 104.688 72.1416 106.668 65.1038L118.874 22.8769H139.108V101.392H124.152V65.8735C124.152 59.4955 124.262 54.3271 124.482 47.6192H124.042C122.503 53.9972 121.513 58.5058 119.534 65.2137L108.977 101.392H94.7914L84.2347 65.2137C82.2553 58.5058 81.2656 53.9972 79.7261 47.6192H79.2862C79.5061 54.3271 79.6161 58.9457 79.6161 65.8735V101.392H64.6608ZM176.996 102.712C159.401 102.712 149.944 93.365 149.944 71.9216C149.944 50.4783 160.611 41.2412 177.216 41.2412C194.151 41.2412 203.278 50.3684 203.278 72.1416V75.2206H165.23C165.779 87.9766 169.628 92.7052 176.996 92.7052C182.824 92.7052 186.453 89.2962 187.113 83.3581H202.618C201.628 96.334 190.852 102.712 176.996 102.712ZM165.34 65.8735H187.992C187.223 55.0969 183.484 51.1381 176.996 51.1381C170.618 51.1381 166.439 55.2069 165.34 65.8735ZM212.826 101.392V51.578L212.606 42.5608H228.001L228.221 49.0488H228.551C230.75 44.3202 237.458 41.2412 242.956 41.2412C251.204 41.2412 256.592 44.98 258.572 50.9182H258.792C262.2 44.4302 268.468 41.2412 275.836 41.2412C287.383 41.2412 294.31 48.169 294.31 61.5849V101.392H278.695V63.0144C278.695 54.1072 274.737 52.4577 270.778 52.4577C266.599 52.4577 261.321 55.2069 261.321 66.0935V101.392H245.816V63.0144C245.816 54.2172 241.747 52.4577 237.788 52.4577C233.609 52.4577 228.331 55.2069 228.331 66.0935V101.392H212.826ZM330.786 102.712C313.632 102.712 303.295 93.365 303.295 71.9216C303.295 50.4783 313.632 41.2412 330.786 41.2412C347.831 41.2412 358.168 50.4783 358.168 71.9216C358.168 93.365 347.831 102.712 330.786 102.712ZM330.786 92.2653C338.484 92.2653 342.663 86.767 342.663 71.9216C342.663 57.0763 338.484 51.6879 330.786 51.6879C322.979 51.6879 318.91 57.0763 318.91 71.9216C318.91 86.767 322.979 92.2653 330.786 92.2653Z" fill="white"/>
<rect x="381.93" y="26.5843" width="189.388" height="76.2367" rx="38.1184" stroke="white" stroke-width="6.93061"/>
<path d="M421.002 82.8282V52.1931H411.325V45.8798H438.493V52.1931H428.764V82.8282H421.002ZM457.777 83.708C447.427 83.708 441.89 77.5499 441.89 64.354C441.89 51.1581 447.427 45 457.777 45C468.075 45 473.664 51.1581 473.664 64.354C473.664 77.5499 468.075 83.708 457.777 83.708ZM457.777 77.9121C463.262 77.9121 465.901 73.7722 465.901 64.354C465.901 54.9358 463.262 50.7959 457.777 50.7959C452.24 50.7959 449.601 54.9358 449.601 64.354C449.601 73.7722 452.24 77.9121 457.777 77.9121ZM495.79 83.708C485.44 83.708 479.903 77.5499 479.903 64.354C479.903 51.1581 485.44 45 495.79 45C506.088 45 511.677 51.1581 511.677 64.354C511.677 77.5499 506.088 83.708 495.79 83.708ZM495.79 77.9121C501.275 77.9121 503.914 73.7722 503.914 64.354C503.914 54.9358 501.275 50.7959 495.79 50.7959C490.253 50.7959 487.614 54.9358 487.614 64.354C487.614 73.7722 490.253 77.9121 495.79 77.9121ZM519.52 82.8282V45.8798H527.231V76.6702H541.72V82.8282H519.52Z" fill="white"/>
</g>
<defs>
<clipPath id="clip0_2_7">
<rect width="575.15" height="124.785" fill="white"/>
</clipPath>
</defs>
</svg>

